<?xml version="1.0" standalone="no"?>
<!DOCTYPE svg PUBLIC "-//W3C//DTD SVG 20010904//EN"
 "http://www.w3.org/TR/2001/REC-SVG-20010904/DTD/svg10.dtd">
<svg version="1.0" xmlns="http://www.w3.org/2000/svg"
 width="512.000000pt" height="512.000000pt" viewBox="0 0 512.000000 512.000000"
 preserveAspectRatio="xMidYMid meet">

<g transform="translate(0.000000,512.000000) scale(0.100000,-0.100000)"
fill="#000000" stroke="none">
<path d="M0 2560 l0 -2560 2560 0 2560 0 0 2560 0 2560 -2560 0 -2560 0 0
-2560z m2795 1718 c10 -23 11 -23 268 -26 141 -1 257 -6 257 -11 0 -4 -175
-313 -390 -686 -214 -374 -390 -689 -390 -701 0 -13 11 -36 24 -51 l24 -28
215 -5 215 -5 -701 -766 c-386 -421 -704 -765 -705 -763 -2 1 129 348 292 770
163 421 296 780 296 796 0 17 -10 39 -25 53 l-24 25 -236 0 c-129 0 -235 3
-234 8 0 4 134 311 298 682 l296 675 172 3 c170 2 173 3 190 27 16 21 26 24
83 25 58 0 66 -2 75 -22z"/>
</g>
</svg>
